<svg xmlns="http://www.w3.org/2000/svg" version="1.1" xmlns:xlink="http://www.w3.org/1999/xlink" xmlns:svgjs="http://svgjs.dev/svgjs" width="1000" height="1000" viewBox="0 0 1000 1000"><rect width="1000" height="1000" fill="#ed1703"></rect><g transform="matrix(0.7,0,0,0.7,150.42638405054458,209.3855060728746)"><svg viewBox="0 0 297 247" data-background-color="#ed1703" preserveAspectRatio="xMidYMid meet" height="831" width="1000" xmlns="http://www.w3.org/2000/svg" xmlns:xlink="http://www.w3.org/1999/xlink"><g id="tight-bounds" transform="matrix(1,0,0,1,-0.18090857203671362,-0.09999999999999432)"><svg viewBox="0 0 297.36181045630707 247.2" height="247.2" width="297.36181045630707"><g><svg viewBox="0 0 395.52 328.79993516977265" height="247.2" width="297.36181045630707"><g transform="matrix(1,0,0,1,0,276.18031347998703)"><svg viewBox="0 0 395.52 52.61962168978562" height="52.61962168978562" width="395.52"><g id="textblocktransform"><svg viewBox="0 0 395.52 52.61962168978562" height="52.61962168978562" width="395.52" id="textblock"><g><svg viewBox="0 0 395.52 52.61962168978562" height="52.61962168978562" width="395.52"><g transform="matrix(1,0,0,1,0,0)"><svg width="395.52" viewBox="-2.049999952316284 14.800000190734863 158.58999633789062 6.300000190734863" height="52.61962168978562" data-palette-color="#ffffff"><g class="wordmark-text-0" data-fill-palette-color="primary" id="text-0"><path d="M23.75 14.8L22.65 21.1-2.05 21.1-0.95 14.8 23.75 14.8ZM56.95 14.8L55.85 21.1 31.15 21.1 32.25 14.8 56.95 14.8ZM90.15 14.8L89.05 21.1 64.35 21.1 65.45 14.8 90.15 14.8ZM123.34 14.8L122.24 21.1 97.54 21.1 98.64 14.8 123.34 14.8ZM156.54 14.8L155.44 21.1 130.74 21.1 131.84 14.8 156.54 14.8Z" fill="#ffffff" data-fill-palette-color="primary"></path></g></svg></g></svg></g></svg></g></svg></g><g transform="matrix(1,0,0,1,72.0920730700443,0)"><svg viewBox="0 0 251.3358538599114 251.3358538599114" height="251.3358538599114" width="251.3358538599114"><g><svg></svg></g><g id="icon-0"><svg viewBox="0 0 251.3358538599114 251.3358538599114" height="251.3358538599114" width="251.3358538599114"><g><path d="M0 125.668c0-69.404 56.263-125.668 125.668-125.668 69.404 0 125.668 56.263 125.668 125.668 0 69.404-56.263 125.668-125.668 125.668-69.404 0-125.668-56.263-125.668-125.668zM125.668 246.591c66.784 0 120.923-54.139 120.923-120.923 0-66.784-54.139-120.923-120.923-120.923-66.784 0-120.923 54.139-120.923 120.923 0 66.784 54.139 120.923 120.923 120.923z" data-fill-palette-color="accent" fill="#ffffff" stroke="transparent"></path></g><g transform="matrix(1,0,0,1,83.38729170957849,57.44661884079723)"><svg viewBox="0 0 84.56127044075441 136.44261617831694" height="136.44261617831694" width="84.56127044075441"><g><svg xmlns="http://www.w3.org/2000/svg" xmlns:xlink="http://www.w3.org/1999/xlink" version="1.1" x="0" y="0" viewBox="23.317630767822266 3.8590002059936523 57.0461540222168 92.0459976196289" enable-background="new 0 0 100 100" xml:space="preserve" height="136.44261617831694" width="84.56127044075441" class="icon-s-0" data-fill-palette-color="accent" id="s-0"><circle fill="#ffffff" cx="55.535" cy="30.386" r="6.9" data-fill-palette-color="accent"></circle><circle fill="#ffffff" cx="40.39" cy="6.497" r="2.6" data-fill-palette-color="accent"></circle><path fill="#ffffff" d="M77.786 31.994l-1.44-2.01c0.012-0.016 0.018-0.034 0.028-0.048-0.027-0.004-0.049-0.008-0.057-0.009-0.005 0-0.009 0-0.012 0l-3.53-4.936-1.322-1.94c-1.055-1.535-0.112-4.603-0.082-4.727 0.592-2.127 0.138-4.508-1.248-6.551-1.257-1.844-3.126-3.127-5.125-3.521-1.564-0.298-3.102 0-4.313 0.823-0.942 0.638-1.657 1.563-2.074 2.681-0.006 0.015-0.274 1.005-0.274 1.005-0.382 2.019 0.121 4.219 1.373 6.078 1.267 1.863 3.122 3.141 5.127 3.52l0.473 0.076c0.042-0.01 1.793 0.091 3.113 0.741l7.343 10.263c0.225 0.313 0.567 0.492 0.924 0.516 0.278 0.02 0.564-0.054 0.811-0.229C78.056 33.329 78.186 32.553 77.786 31.994zM65.204 20.384c-1.473-0.279-2.869-1.252-3.814-2.678-0.964-1.417-1.354-3.07-1.073-4.542l0.199-0.713c0.268-0.722 0.701-1.297 1.307-1.708 1.951-1.319 4.924-0.346 6.636 2.171 1.696 2.51 1.503 5.64-0.448 6.958C67.227 20.402 66.254 20.577 65.204 20.384z" data-fill-palette-color="accent"></path><path fill="#ffffff" d="M79.168 32.888c-1.355-1.056-3.305-0.813-4.36 0.54l-8.276 10.616-9.665-2.461-11.967-8.563c-0.145-0.104-0.298-0.195-0.458-0.272l-7.935-3.826-3.092-14.999c-0.347-1.68-1.994-2.76-3.669-2.415-1.681 0.347-2.762 1.99-2.415 3.669l3.401 16.503c0.196 0.948 0.822 1.75 1.693 2.17l9.078 4.377 1.088 0.778L23.907 66.531c-0.578 0.853-0.741 1.92-0.444 2.905l7.247 24.037c0.446 1.478 1.802 2.432 3.271 2.432 0.326 0 0.658-0.047 0.987-0.147 1.807-0.544 2.83-2.45 2.285-4.257l-6.776-22.479 7.422-10.936L40.58 59.1l-4.818 10.689c-0.452 1.004-0.394 2.164 0.158 3.117l12.334 21.293c0.634 1.095 1.78 1.705 2.959 1.705 0.583 0 1.17-0.148 1.71-0.461 1.633-0.945 2.189-3.036 1.244-4.668L42.711 70.999l10.875-24.126 0.141 0.101c0.314 0.224 0.668 0.389 1.042 0.484l12.197 3.105c0.253 0.065 0.512 0.097 0.767 0.097 0.942-0.001 1.852-0.431 2.449-1.196l9.525-12.217C80.762 35.894 80.52 33.942 79.168 32.888z" data-fill-palette-color="accent"></path><path fill="#ffffff" d="M71.026 15.58l-0.345-0.516-2.506 1.678-1.479-2.165 2.435-1.629-0.345-0.516-2.439 1.633-1.62-2.372 1.184-0.857-0.363-0.503-1.172 0.847-1.152-1.688-0.515 0.35 1.164 1.703-2.147 1.554-1.838-2.689-0.514 0.351 1.847 2.704-1.151 0.833 0.365 0.503 1.138-0.823 1.539 2.253-2.188 1.465 0.345 0.516 2.194-1.468 1.479 2.165-2.122 1.42 0.345 0.516 2.127-1.424 0.755 1.104 0.514-0.35-0.752-1.1 2.203-1.474 1.369 2.006 0.515-0.35-1.368-2.001L71.026 15.58zM62.074 13.612l2.148-1.555 1.606 2.354-2.201 1.474L62.074 13.612zM65.456 18.562l-1.479-2.164 2.203-1.475 1.479 2.165L65.456 18.562z" data-fill-palette-color="accent"></path></svg></g></svg></g></svg></g></svg></g><g></g></svg></g><defs></defs></svg><rect width="297.36181045630707" height="247.2" fill="none" stroke="none" visibility="hidden"></rect></g></svg></g></svg>